<svg xmlns="http://www.w3.org/2000/svg" viewBox="0 0 64.65 67.17"><defs><style>.cls-1{fill:#172b4d;}.cls-2{fill:#fb6340;}.cls-3{fill:#f5365c;}.cls-4{fill:#fff;}</style></defs><g id="Layer_2" data-name="Layer 2"><g id="Layer_1-2" data-name="Layer 1"><path class="cls-1" d="M14.19,16.42V43.24H4.13V16.42Zm-5-12a5,5,0,0,1,3.54,1.44,4.57,4.57,0,0,1,1.49,3.41,4.55,4.55,0,0,1-1.41,3.44,5,5,0,0,1-3.62,1.35,5,5,0,0,1-3.61-1.35A4.55,4.55,0,0,1,4.16,9.29,4.57,4.57,0,0,1,5.65,5.88,4.94,4.94,0,0,1,9.18,4.44Z"/><path class="cls-1" d="M36.57,30.89l10-.38a14.18,14.18,0,0,1-4.33,9.55,13.23,13.23,0,0,1-9.5,3.74,13.49,13.49,0,0,1-10-4.12A13.76,13.76,0,0,1,18.65,29.6a13.08,13.08,0,0,1,4.12-9.71,13.59,13.59,0,0,1,9.87-4A13.88,13.88,0,0,1,46.31,27.12l-10.2.38a4,4,0,0,0-3.34-1.72A3.74,3.74,0,0,0,30,26.91a3.88,3.88,0,0,0-1.1,2.85A4,4,0,0,0,30,32.69a3.93,3.93,0,0,0,2.92,1.18Q35.49,33.87,36.57,30.89Z"/><path class="cls-1" d="M61,16.42V43.24H50.93V16.42Zm-5-12a5,5,0,0,1,3.54,1.44A4.6,4.6,0,0,1,61,9.29a4.55,4.55,0,0,1-1.41,3.44,5.53,5.53,0,0,1-7.24,0A4.55,4.55,0,0,1,51,9.29a4.6,4.6,0,0,1,1.49-3.41A5,5,0,0,1,56,4.44Z"/><circle class="cls-2" cx="9.32" cy="7.32" r="7.32"/><circle class="cls-2" cx="55.92" cy="7.36" r="7.32"/><path class="cls-3" d="M0,44.38C2,46.56,16.17,62,36.9,59.32,52.38,57.34,62,46.5,64.65,43.26A39,39,0,0,1,53.22,60.07c-11.6,9.54-27.47,8.9-38.85,1.49C6.38,56.36,2.06,48.78,0,44.38Z"/><path class="cls-3" d="M54.13,55.22c1,.56,2.29,1.33,3.78,2.29,2.58,1.68,3.06,2.23,3.41,2.78a5.88,5.88,0,0,1,.79,4.39,2.47,2.47,0,0,1-.86,1.42,2.29,2.29,0,0,1-2.32.19,4,4,0,0,1-2.13-1.62l-1.66-2.25c-.14-.16-.89-.83-1.86-1.79a25.16,25.16,0,0,0-3.43-2.77C51,57,53,56,54.13,55.22Z"/><path class="cls-4" d="M55.53,57.86a1.54,1.54,0,0,1-.21.83,1.47,1.47,0,0,1-.94.66,7.52,7.52,0,0,1,1.39.36,4.76,4.76,0,0,1,1.69.9,5.23,5.23,0,0,1,1,1.19c.08.12.14.24.15.25A6.38,6.38,0,0,1,59,63a4.71,4.71,0,0,0-.24-1.49,5,5,0,0,0-1-1.79,9.83,9.83,0,0,0-1.29-1.12C56.09,58.27,55.76,58,55.53,57.86Z"/></g></g></svg>