<svg xmlns="http://www.w3.org/2000/svg" viewBox="0 0 2724.34 738.1"><defs><style>.cls-1{fill:#fff;}.cls-2{fill:#fb6340;}.cls-3{fill:#f5365c;}</style></defs><g id="Layer_2" data-name="Layer 2"><g id="Layer_1-2" data-name="Layer 1"><path class="cls-1" d="M1172.6,77.49v399.9H1063V77.49Z"/><path class="cls-1" d="M1346.33,185.3V477.39H1236.76V185.3ZM1291.84,54.93q22.26,0,38.53,15.67t16.26,37.06q0,22.85-15.38,37.5t-39.4,14.65q-24,0-39.4-14.65t-15.38-37.5q0-21.37,16.26-37.06A53.59,53.59,0,0,1,1291.84,54.93Z"/><path class="cls-1" d="M1590.08,342.92l108.69-4.1q-4.69,63.29-47.17,104t-103.42,40.72q-64.46,0-108.84-44.82T1395,328.86q0-61.82,44.82-105.76t107.52-43.95q54.78,0,96.68,34.57t52.15,88.18l-111,4.1q-14.35-18.75-36.33-18.75-18.75,0-30.76,12.3t-12,31.05q0,19,12.74,31.93t31.79,12.89Q1578.36,375.45,1590.08,342.92Z"/><path class="cls-1" d="M1856.09,185.3V477.39H1746.52V185.3ZM1801.6,54.93q22.26,0,38.53,15.67t16.26,37.06q0,22.85-15.38,37.5t-39.4,14.65q-24,0-39.4-14.65t-15.38-37.5q0-21.37,16.26-37.06T1801.6,54.93Z"/><path class="cls-1" d="M2059.12,179.15q62.1,0,106.49,44.68T2210,330.91q0,63.29-45,107.81t-108.54,44.53q-63.57,0-108.69-44.68T1902.67,330.9q0-64.15,45.12-108T2059.12,179.15Zm-2.93,108.11A40,40,0,0,0,2026.31,300q-12.3,12.75-12.3,31.2a43.07,43.07,0,0,0,12.45,31.05q12.45,12.9,29.74,12.89a40.21,40.21,0,0,0,30-12.89,43.07,43.07,0,0,0,12.45-31.05q0-18.45-12.3-31.2A40.37,40.37,0,0,0,2056.19,287.26Z"/><path class="cls-1" d="M2255.7,189.41h109.57V354.35q0,24.9,20.8,24.9,20.5,0,20.51-24.9V189.41h109.57V352.3q0,56.83-37.79,95.95t-92.58,39.11q-62.4,0-100.49-45.41-29.6-35.44-29.59-98.44Z"/><path class="cls-1" d="M2724.34,243.29q0,3-4.37,8a66.61,66.61,0,0,0-16.32-2.06q-17.19,0-28.85,7.67-14,8.85-14,25.07,0,10.32,14.86,26.25,22.44,23.9,27.68,32.15,14.87,22.41,14.86,48.07a97.2,97.2,0,0,1-5.83,31.85q-6.71,18.58-16.9,27.13a201.42,201.42,0,0,1-50.41,31.85q-31.18,13.56-57.4,13.57-5.84,0-26.08-32t-20.25-39.08q0-2.66,3.21-3.24,20.4-3.83,41.09-7.67,25.64-8.25,25.64-27.13,0-13-14.86-30.08-26.52-29.79-27.68-31.56-14.86-21.24-14.86-44.83,0-44.23,44.29-75.21,39.63-27.43,84.79-27.43,4.66,0,23,31.7T2724.34,243.29Z"/><circle class="cls-2" cx="1293.33" cy="79.72" r="79.72"/><circle class="cls-2" cx="1799.32" cy="81.03" r="79.72"/><path class="cls-3" d="M1213.6,489.89c21.22,23.76,176.15,191.5,401.83,162.68C1784.1,631,1888.64,512.93,1917.69,477.69c-15.78,43.37-51.13,122.69-124.46,183C1666.85,764.65,1494,757.61,1370.07,677,1283.06,620.35,1236,537.78,1213.6,489.89Z"/><path class="cls-3" d="M197.32,33.83c-.62,23.74.6,48.7,0,72.45-8.21.76-25.09.89-38.21,10.35-32.12,23.17-29.21,64-28.95,67.68,22.78-.61,44.22-.41,67-1,.62,21.92-.79,42.31-.18,64.23-23.4,0-45.57-1-69-1,1.23,74.27,1.23,149.57,2.46,223.84l-83.13,1.83c-.62-76.1-1.54-144.89-2.16-221H.53c-1.85-19.48,1.85-46.27,0-65.75h46.8a153.17,153.17,0,0,1,7.39-54.79c11-33.67,30.75-54.08,35.1-58.44C128.7,33.17,184.14,34.13,197.32,33.83Z"/><path class="cls-3" d="M322.07,207.17c-75.27,0-136.29,61.13-136.29,136.54s61,136.54,136.29,136.54,136.29-61.13,136.29-136.54S397.34,207.17,322.07,207.17Zm.46,205.23c-33.7,0-61-30.69-61-68.55s27.32-68.55,61-68.55,61,30.69,61,68.55S356.24,412.4,322.53,412.4Z"/><path class="cls-3" d="M606.42,204.61c-75.27,0-136.29,61.13-136.29,136.54s61,136.54,136.29,136.54,136.29-61.13,136.29-136.54S681.69,204.61,606.42,204.61Zm.47,205.22c-33.7,0-61-30.69-61-68.55s27.32-68.55,61-68.55,61,30.69,61,68.55S640.59,409.83,606.89,409.83Z"/><path class="cls-3" d="M1029.68,338.07l-4.2-261.73L949.84,78l1.68,141.25c-9.32-4.6-49.13-23-97.49-9.14C810.61,222.53,788,253,781.75,261.62c-37,51.43-23.34,108.72-21,118,2.78,11.09,12.32,46.88,46.22,73.95,56.77,45.31,127.76,23,131.95,21.6,6.87-2.29,48.09-16.65,73.12-56.5,4.85-7.72,15.85-25.68,18.49-51.51A112.26,112.26,0,0,0,1029.68,338.07Zm-136,74.78c-34.24,0-62-31.05-62-69.34s27.76-69.35,62-69.35,62,31,62,69.35S928,412.85,893.72,412.85Z"/><path class="cls-3" d="M1326.42,600.32c-10.82,6.12-25,14.46-41.16,25-28.12,18.29-33.28,24.21-37.13,30.24-1.56,2.45-15.28,24.6-8.65,47.75,1.21,4.25,3.23,10.95,9.39,15.54,7.51,5.59,17.89,5.59,25.29,2.06,4.74-2.26,12.66-3.45,23.14-17.69l18.18-24.43c1.43-1.75,9.59-9.09,20.18-19.57,8.43-8.35,21.5-19.21,37.39-30.16C1360.4,620.18,1339.07,609.21,1326.42,600.32Z"/><path class="cls-1" d="M1311.19,629.12a16.26,16.26,0,0,0,2.3,9,16,16,0,0,0,10.22,7.13,85.72,85.72,0,0,0-15.17,4c-7,2.57-12.66,4.61-18.42,9.71a60.84,60.84,0,0,0-10.66,13c-.81,1.29-1.52,2.57-1.6,2.7A67.72,67.72,0,0,0,1273.2,685a54.77,54.77,0,0,1,2.53-16.26,56.41,56.41,0,0,1,11-19.46c3-3.38,6.66-6.34,14.09-12.26C1305.1,633.6,1308.71,630.93,1311.19,629.12Z"/></g></g></svg>